# xmcd
#
# Track frame offsets: 
#        150
#        19668
#        32295
#        43135
#        54037
#        64605
#        78193
#        88698
#        98741
#        110164
#        124046
#        132838
#        143043
#        156361
#        169084
#        180768
#        190036
#        201452
#        215143
#        226254
#        239336
#        250668
#        262137
#        272363
#        283359
#
# Disc length: 3935 seconds
#
# Revision: 0
# Processed by: cddbd v1.5.2PL0 Copyright (c) Steve Scherf et al.
# Submitted via: ExactAudioCopyFreeDBPlugin 1.0
#
DISCID=5a0f5d19
DTITLE=Various Artist - Heroes Of The Country Ballads [Disc 1]
DYEAR=2012
DGENRE=Country
TTITLE0=Marty Robbins - El Paso
TTITLE1=Johnny Horton - North To Alaska
TTITLE2=Faron Young - Hello Walls
TTITLE3=George Jones - Tender Years
TTITLE4=Leroy Van Dyke - Walk On By
TTITLE5=Jimmy Dean - Big Bad John
TTITLE6=Jim Reeves - He'll Have To Go
TTITLE7=Porter Wagoner - Your Old Love Letters
TTITLE8=Don Gibson - Sea Of Heartbreak
TTITLE9=The Everly Brothers - Ebony Eyes
TTITLE10=Frankie Laine - Gunslinger
TTITLE11=Johnny Cash - Frankie and Johnny
TTITLE12=Ray Price - City Lights
TTITLE13=Hank Snow - Beggar To A King
TTITLE14=Tennessee Ernie Ford - Sixteen Tons
TTITLE15=Webb Pierce - In The Jailhouse Now
TTITLE16=Eddy Arnold - The Cattle Call
TTITLE17=Red Sovine - Little Rosa
TTITLE18=Hank Locklin - Let Me Be The One
TTITLE19=Kitty Wells and Red Foley - One By One
TTITLE20=Roy Acuff - Once More
TTITLE21=Bill Anderson - The Tip Of My Fingers
TTITLE22=Jimmy C. Newman - A Fallen Star
TTITLE23=Buck Owens - Excuse Me (I Think I've Got A Heartache)
TTITLE24=Hank Williams - Take These Chains From My Heart
EXTD=
EXTT0=
EXTT1=
EXTT2=
EXTT3=
EXTT4=
EXTT5=
EXTT6=
EXTT7=
EXTT8=
EXTT9=
EXTT10=
EXTT11=
EXTT12=
EXTT13=
EXTT14=
EXTT15=
EXTT16=
EXTT17=
EXTT18=
EXTT19=
EXTT20=
EXTT21=
EXTT22=
EXTT23=
EXTT24=
PLAYORDER=
